<?xml version="1.0" encoding="UTF-8"?>
<svg width="19px" height="19px" viewBox="0 0 19 19" version="1.1" xmlns="http://www.w3.org/2000/svg" xmlns:xlink="http://www.w3.org/1999/xlink">
    <!-- Generator: Sketch 52.5 (67469) - http://www.bohemiancoding.com/sketch -->
    <title>github</title>
    <desc>Created with Sketch.</desc>
    <g id="Page-1" stroke="none" stroke-width="1" fill="none" fill-rule="evenodd">
        <g id="Desktop-HD" transform="translate(-225.000000, -84.000000)" fill="#2B2D42">
            <path d="M231.160142,99.1074264 C231.160142,99.2063847 231.092108,99.2620486 230.95604,99.2744182 C230.819973,99.2867878 230.751939,99.243494 230.751939,99.1445357 C230.751939,99.0455774 230.813788,98.9960985 230.937486,98.9960985 C231.011704,98.9960985 231.067368,99.0084681 231.104478,99.0332078 C231.141587,99.0579475 231.160142,99.0826867 231.160142,99.1074264 Z M230.009754,98.9589892 C230.034493,98.860031 230.108712,98.8291067 230.232409,98.866216 C230.356107,98.9033253 230.411771,98.9528042 230.399401,99.0146532 C230.387032,99.0765022 230.356107,99.119796 230.306628,99.1445357 C230.257149,99.1692754 230.20767,99.1692754 230.158191,99.1445357 C230.108712,99.119796 230.065418,99.0888717 230.028308,99.0517625 C229.991199,99.0146532 229.985014,98.983729 230.009754,98.9589892 Z M231.642562,98.8847707 C231.76626,98.8847707 231.834294,98.92188 231.846663,98.9960985 C231.859033,99.0703171 231.803369,99.1321661 231.679672,99.181645 C231.630193,99.181645 231.586898,99.1754599 231.549789,99.1630903 C231.51268,99.1507207 231.48794,99.1074264 231.47557,99.0332078 C231.463201,98.9589892 231.518865,98.9095104 231.642562,98.8847707 Z M234.091775,84.6719139 C235.774063,84.6719139 237.332653,85.0677465 238.767545,85.8594111 C240.202438,86.6510757 241.328086,87.727245 242.14449,89.087919 C242.985634,90.4980719 243.406206,92.0442924 243.406206,93.7265798 C243.406206,95.7799602 242.831012,97.6168699 241.680624,99.2373089 C240.530236,100.857748 239.02731,101.977211 237.171846,102.595699 C236.97393,102.645178 236.819308,102.620439 236.70798,102.521481 C236.596652,102.422522 236.540988,102.298825 236.540988,102.150388 L236.540988,99.0332078 C236.540988,98.2415432 236.330702,97.6725338 235.91013,97.3261806 C236.825493,97.2272223 237.50583,97.1035249 237.951141,96.9550878 C238.643848,96.7076923 239.175747,96.3365995 239.54684,95.8418092 C239.967412,95.1985817 240.177698,94.3203284 240.177698,93.2070498 C240.177698,92.7369987 240.09111,92.3287965 239.917933,91.9824434 C239.794236,91.7350479 239.55921,91.4258041 239.212857,91.0547112 C239.311815,90.8073158 239.373663,90.5104415 239.398403,90.1640883 C239.423143,89.6198186 239.336554,89.0755495 239.138638,88.5312797 C238.891243,88.4570612 238.54489,88.50654 238.099578,88.6797169 C237.802704,88.8034143 237.456351,88.9765912 237.060518,89.1992469 L236.578097,89.5332305 C235.811172,89.3105747 235.025692,89.1992469 234.221658,89.1992469 C233.417623,89.1992469 232.644513,89.3105747 231.902327,89.5332305 L231.419907,89.1992469 C231.024074,88.9765912 230.665351,88.8034143 230.343737,88.6797169 C229.898426,88.50654 229.564442,88.4570612 229.341787,88.5312797 C229.119131,89.0755495 229.032543,89.6198186 229.082022,90.1640883 C229.082022,90.5104415 229.1315,90.7949462 229.230459,91.0176019 C228.933584,91.3886948 228.717114,91.7288634 228.581046,92.0381073 C228.444979,92.3473512 228.376945,92.7369987 228.376945,93.2070498 C228.376945,94.3203284 228.574861,95.1862116 228.970694,95.8046999 C229.317047,96.3242299 229.836577,96.7076923 230.529284,96.9550878 C230.974595,97.1035249 231.642562,97.2272223 232.533185,97.3261806 C232.211571,97.6230549 232.013655,98.0436267 231.939437,98.5878964 C231.518865,98.7858124 231.110663,98.860031 230.71483,98.8105521 C230.071603,98.7610732 229.576812,98.4270897 229.230459,97.8086014 C229.082022,97.5364668 228.884106,97.3138111 228.63671,97.1406342 C228.463533,97.0416759 228.277987,96.9550878 228.080071,96.8808692 L227.820306,96.8437599 C227.548171,96.8437599 227.405919,96.8870543 227.393549,96.9736424 C227.381179,97.0602306 227.436843,97.1530038 227.560541,97.2519621 L227.746087,97.4003992 C227.919264,97.4993575 228.09244,97.6601642 228.265617,97.8828199 C228.414054,98.0559968 228.537752,98.2539128 228.63671,98.4765685 L228.785147,98.7734428 C228.908845,99.1445357 229.143871,99.4290404 229.490224,99.6269564 C229.787098,99.8001333 230.145821,99.9114611 230.566393,99.96094 C230.863267,99.9856797 231.172511,99.9733096 231.494125,99.9238307 L231.902327,99.8867214 L231.939437,102.150388 C231.939437,102.298825 231.883773,102.422522 231.772445,102.521481 C231.661117,102.620439 231.506495,102.645178 231.308579,102.595699 C229.428375,101.977211 227.906894,100.857748 226.744136,99.2373089 C225.581379,97.6168699 225,95.7799602 225,93.7265798 C225,92.0442924 225.395833,90.5104415 226.187497,89.1250283 C226.979162,87.7396151 228.067701,86.6510757 229.453114,85.8594111 C230.838528,85.0677465 232.384748,84.6719139 234.091775,84.6719139 Z M228.599601,97.4746178 C228.64908,97.4251389 228.710929,97.4375085 228.785147,97.5117271 C228.859366,97.5859456 228.871735,97.6477946 228.822257,97.6972735 C228.772778,97.7467524 228.710929,97.7343828 228.63671,97.6601642 C228.562492,97.5859456 228.550122,97.5240966 228.599601,97.4746178 Z M228.191399,97.1777435 C228.240878,97.1282646 228.302727,97.1220796 228.376945,97.1591888 C228.451164,97.1962981 228.475903,97.245777 228.451164,97.307626 C228.426424,97.369475 228.37076,97.3756595 228.284172,97.3261806 C228.197584,97.2767018 228.166659,97.2272223 228.191399,97.1777435 Z M229.416005,98.4765685 C229.440745,98.4518288 229.477854,98.4456443 229.527333,98.4580139 C229.576812,98.4703834 229.620106,98.4951232 229.657215,98.5322324 C229.694325,98.5693417 229.719064,98.6126361 229.731434,98.6621149 C229.743804,98.7115938 229.737619,98.7487031 229.712879,98.7734428 C229.638661,98.8476614 229.552073,98.8352918 229.453114,98.7363335 C229.403636,98.6868547 229.378896,98.6373752 229.378896,98.5878964 C229.378896,98.5384175 229.391265,98.5013082 229.416005,98.4765685 Z M228.970694,97.9570385 C229.020173,97.9322988 229.063467,97.9261143 229.100576,97.9384839 C229.137685,97.9508534 229.16861,97.9817782 229.193349,98.0312571 C229.267568,98.1302154 229.267568,98.2044339 229.193349,98.2539128 C229.16861,98.2786525 229.137685,98.2786525 229.100576,98.2539128 C229.063467,98.2291731 229.020173,98.2044339 228.970694,98.1796942 C228.921215,98.0559968 228.921215,97.9817782 228.970694,97.9570385 Z" id="github"></path>
        </g>
    </g>
</svg>