<?xml version="1.0" encoding="UTF-8"?>
<svg width="19px" height="20px" viewBox="0 0 19 20" version="1.1" xmlns="http://www.w3.org/2000/svg" xmlns:xlink="http://www.w3.org/1999/xlink">
    <!-- Generator: Sketch 52.5 (67469) - http://www.bohemiancoding.com/sketch -->
    <title>search</title>
    <desc>Created with Sketch.</desc>
    <g id="Page-1" stroke="none" stroke-width="1" fill="none" fill-rule="evenodd">
        <g id="Desktop-HD" transform="translate(-259.000000, -148.000000)" fill="#2B2D42">
            <path d="M277.74019,164.814454 C277.913367,164.98763 277.999955,165.197916 277.999955,165.445311 C277.999955,165.692707 277.913367,165.902992 277.74019,166.076169 L276.70113,167.115229 C276.527953,167.288406 276.317667,167.374994 276.070272,167.374994 C275.822876,167.374994 275.612591,167.288406 275.439414,167.115229 L271.728485,163.404301 C271.555308,163.231124 271.46872,163.020838 271.46872,162.773443 L271.46872,162.179694 C270.083307,163.268233 268.499977,163.812503 266.718732,163.812503 C265.308579,163.812503 264.015939,163.46615 262.840811,162.773443 C261.665684,162.080736 260.731767,161.146819 260.03906,159.971692 C259.346353,158.796564 259,157.503924 259,156.093771 C259,154.683618 259.346353,153.390978 260.03906,152.215851 C260.731767,151.040723 261.665684,150.106807 262.840811,149.4141 C264.015939,148.721393 265.308579,148.37504 266.718732,148.37504 C268.128884,148.37504 269.421524,148.721393 270.596652,149.4141 C271.77178,150.106807 272.705696,151.040723 273.398403,152.215851 C274.09111,153.390978 274.437463,154.683618 274.437463,156.093771 C274.437463,157.875017 273.893193,159.458347 272.804655,160.84376 L273.398403,160.84376 C273.645799,160.84376 273.856084,160.930348 274.029261,161.103525 L277.74019,164.814454 Z M266.718732,160.84376 C267.584615,160.84376 268.382464,160.633474 269.112281,160.212902 C269.842097,159.79233 270.417291,159.217136 270.837862,158.48732 C271.258434,157.757504 271.46872,156.959654 271.46872,156.093771 C271.46872,155.227888 271.258434,154.430038 270.837862,153.700222 C270.417291,152.970406 269.842097,152.395212 269.112281,151.97464 C268.382464,151.554069 267.584615,151.343783 266.718732,151.343783 C265.852848,151.343783 265.054999,151.554069 264.325183,151.97464 C263.595366,152.395212 263.020173,152.970406 262.599601,153.700222 C262.179029,154.430038 261.968743,155.227888 261.968743,156.093771 C261.968743,156.959654 262.179029,157.757504 262.599601,158.48732 C263.020173,159.217136 263.595366,159.79233 264.325183,160.212902 C265.054999,160.633474 265.852848,160.84376 266.718732,160.84376 Z" id="search"></path>
        </g>
    </g>
</svg>