<?xml version="1.0" encoding="UTF-8"?>
<svg width="106px" height="32px" viewBox="0 0 106 32" version="1.1" xmlns="http://www.w3.org/2000/svg" xmlns:xlink="http://www.w3.org/1999/xlink">
    <!-- Generator: Sketch 52.5 (67469) - http://www.bohemiancoding.com/sketch -->
    <title>Group 4</title>
    <desc>Created with Sketch.</desc>
    <g id="Page-1" stroke="none" stroke-width="1" fill="none" fill-rule="evenodd">
        <g id="Desktop-HD" transform="translate(-40.000000, -16.000000)">
            <g id="Group-4" transform="translate(40.000000, 16.000000)">
                <g id="Group-3">
                    <rect id="Rectangle" stroke="#2B2D42" x="4.5" y="2.5" width="23" height="23" rx="4"></rect>
                    <rect id="Rectangle-Copy-3" stroke="#2B2D42" x="0.5" y="0.5" width="31" height="31" rx="5"></rect>
                    <path d="M8.93310547,6.69433594 L10.8120117,6.69433594 L10.8120117,11.734375 C10.8120117,12.5341837 10.8352862,13.0525704 10.8818359,13.2895508 C10.96224,13.6704121 11.1537257,13.9761544 11.4562988,14.2067871 C11.758872,14.4374198 12.1725234,14.5527344 12.6972656,14.5527344 C13.2304714,14.5527344 13.6324856,14.4437674 13.9033203,14.2258301 C14.174155,14.0078928 14.3370765,13.740236 14.3920898,13.4228516 C14.4471031,13.1054672 14.4746094,12.578617 14.4746094,11.8422852 L14.4746094,6.69433594 L16.3535156,6.69433594 L16.3535156,11.5820312 C16.3535156,12.6992243 16.3027349,13.4884417 16.2011719,13.949707 C16.0996089,14.4109724 15.9123549,14.8002914 15.6394043,15.1176758 C15.3664537,15.4350602 15.0014671,15.687906 14.5444336,15.8762207 C14.0874001,16.0645354 13.4907263,16.1586914 12.7543945,16.1586914 C11.8657182,16.1586914 11.1918154,16.056072 10.732666,15.8508301 C10.2735166,15.6455882 9.91064586,15.3789893 9.64404297,15.0510254 C9.37744007,14.7230615 9.20182334,14.3792336 9.1171875,14.0195312 C8.99446553,13.4863255 8.93310547,12.699224 8.93310547,11.6582031 L8.93310547,6.69433594 Z" id="U" fill="#2B2D42"></path>
                </g>
                <g id="Group-3-Copy" transform="translate(37.000000, 0.000000)">
                    <rect id="Rectangle" stroke="#2B2D42" x="4.5" y="2.5" width="23" height="23" rx="4"></rect>
                    <rect id="Rectangle-Copy-3" stroke="#2B2D42" x="0.5" y="0.5" width="31" height="31" rx="5"></rect>
                    <polygon id="T" fill="#2B2D42" points="11.0405273 16 11.0405273 8.26855469 8.27929688 8.26855469 8.27929688 6.69433594 15.6743164 6.69433594 15.6743164 8.26855469 12.9194336 8.26855469 12.9194336 16"></polygon>
                </g>
                <g id="Group-3-Copy-2" transform="translate(74.000000, 0.000000)">
                    <rect id="Rectangle" stroke="#2B2D42" x="4.5" y="2.5" width="23" height="23" rx="4"></rect>
                    <rect id="Rectangle-Copy-3" stroke="#2B2D42" x="0.5" y="0.5" width="31" height="31" rx="5"></rect>
                    <polygon id="K" fill="#2B2D42" points="8.97119141 16 8.97119141 6.69433594 10.8500977 6.69433594 10.8500977 10.8266602 14.6459961 6.69433594 17.1723633 6.69433594 13.668457 10.3188477 17.362793 16 14.9316406 16 12.3735352 11.6328125 10.8500977 13.1879883 10.8500977 16"></polygon>
                </g>
            </g>
        </g>
    </g>
</svg>