<?xml version="1.0" encoding="UTF-8"?>
<svg width="15px" height="18px" viewBox="0 0 15 18" version="1.1" xmlns="http://www.w3.org/2000/svg" xmlns:xlink="http://www.w3.org/1999/xlink">
    <!-- Generator: Sketch 52.5 (67469) - http://www.bohemiancoding.com/sketch -->
    <title>apple</title>
    <desc>Created with Sketch.</desc>
    <g id="Page-1" stroke="none" stroke-width="1" fill="none" fill-rule="evenodd">
        <g id="Desktop-HD" transform="translate(-104.000000, -133.000000)" fill="#2B2D42">
            <path d="M112.165994,137.496121 C111.918598,137.57034 111.572245,137.619819 111.126934,137.644558 C111.151673,136.580759 111.436178,135.696321 111.980447,134.991244 C112.524717,134.286168 113.328751,133.809932 114.392551,133.562537 C114.516248,134.057327 114.479139,134.583042 114.281223,135.139681 C114.083307,135.696321 113.786433,136.191111 113.3906,136.624053 C112.994768,137.056995 112.586565,137.347684 112.165994,137.496121 Z M116.693327,140.16799 C116.198536,140.860697 115.975881,141.627622 116.02536,142.468766 C116.074838,143.210951 116.316049,143.891288 116.748991,144.509776 C117.181933,145.128265 117.695277,145.524097 118.289026,145.697273 C117.967412,146.711594 117.484991,147.651696 116.841764,148.517579 C116.050099,149.606118 115.270804,150.150388 114.503879,150.150388 C114.157526,150.150388 113.66892,150.045245 113.038062,149.834959 C112.407204,149.624673 111.906229,149.51953 111.535136,149.51953 C111.164043,149.51953 110.669253,149.643227 110.050764,149.890623 C109.506495,150.088539 109.085923,150.187497 108.789049,150.187497 C108.096342,150.187497 107.378896,149.742186 106.63671,148.851563 C105.993483,148.059898 105.449213,147.064132 105.003901,145.864265 C104.55859,144.664399 104.335934,143.569675 104.335934,142.580093 C104.335934,141.19468 104.669918,140.007183 105.337885,139.017602 C106.080071,137.953802 107.057282,137.421903 108.269519,137.421903 C108.73957,137.421903 109.407537,137.5456 110.27342,137.792995 C110.842429,137.941433 111.238262,138.015651 111.460917,138.015651 C111.683573,138.015651 112.079406,137.929063 112.648414,137.755886 C113.489559,137.483752 114.157526,137.347684 114.652316,137.347684 C115.320283,137.347684 115.914032,137.496121 116.433562,137.792995 C116.903613,138.06513 117.361294,138.473332 117.806605,139.017602 C117.287075,139.438174 116.915982,139.821637 116.693327,140.16799 Z" id="apple"></path>
        </g>
    </g>
</svg>