<?xml version="1.0" encoding="UTF-8"?>
<svg width="12px" height="12px" viewBox="0 0 12 12" version="1.1" xmlns="http://www.w3.org/2000/svg" xmlns:xlink="http://www.w3.org/1999/xlink">
    <!-- Generator: Sketch 52.5 (67469) - http://www.bohemiancoding.com/sketch -->
    <title>plus</title>
    <desc>Created with Sketch.</desc>
    <g id="Page-1" stroke="none" stroke-width="1" fill="none" fill-rule="evenodd" fill-opacity="0.2">
        <g id="Desktop-HD" transform="translate(-1171.000000, -186.000000)" fill="#2B2D42">
            <g id="Group-2-Copy" transform="translate(712.000000, 172.000000)">
                <path d="M470.374973,21.0898531 C470.374973,21.2591236 470.315728,21.4030032 470.197239,21.5214927 C470.078749,21.6399821 469.93487,21.6992266 469.765599,21.6992266 L466.261701,21.6992266 L466.261701,25.2031245 C466.261701,25.3723951 466.202457,25.5162747 466.083967,25.6347641 C465.965478,25.7532535 465.821598,25.8124981 465.652328,25.8124981 L463.722645,25.8124981 C463.553374,25.8124981 463.409495,25.7532535 463.291005,25.6347641 C463.172516,25.5162747 463.113271,25.3723951 463.113271,25.2031245 L463.113271,21.6992266 L459.609374,21.6992266 C459.440103,21.6992266 459.296223,21.6399821 459.177734,21.5214927 C459.059245,21.4030032 459,21.2591236 459,21.0898531 L459,19.1601702 C459,18.9908996 459.059245,18.84702 459.177734,18.7285306 C459.296223,18.6100411 459.440103,18.5507966 459.609374,18.5507966 L463.113271,18.5507966 L463.113271,15.0468987 C463.113271,14.8776282 463.172516,14.7337486 463.291005,14.6152591 C463.409495,14.4967697 463.553374,14.4375252 463.722645,14.4375252 L465.652328,14.4375252 C465.821598,14.4375252 465.965478,14.4967697 466.083967,14.6152591 C466.202457,14.7337486 466.261701,14.8776282 466.261701,15.0468987 L466.261701,18.5507966 L469.765599,18.5507966 C469.93487,18.5507966 470.078749,18.6100411 470.197239,18.7285306 C470.315728,18.84702 470.374973,18.9908996 470.374973,19.1601702 L470.374973,21.0898531 Z" id="plus"></path>
            </g>
        </g>
    </g>
</svg>