<?xml version="1.0" encoding="UTF-8"?>
<svg width="19px" height="16px" viewBox="0 0 19 16" version="1.1" xmlns="http://www.w3.org/2000/svg" xmlns:xlink="http://www.w3.org/1999/xlink">
    <!-- Generator: Sketch 52.5 (67469) - http://www.bohemiancoding.com/sketch -->
    <title>twitter</title>
    <desc>Created with Sketch.</desc>
    <g id="Page-1" stroke="none" stroke-width="1" fill="none" fill-rule="evenodd">
        <g id="Desktop-HD" transform="translate(-156.000000, -85.000000)" fill="#2B2D42">
            <path d="M173.033163,89.0156512 C173.057902,89.1146095 173.070272,89.2754162 173.070272,89.4980719 C173.070272,91.2793177 172.63733,92.9987144 171.771447,94.6562627 C170.880824,96.4127688 169.631478,97.8105521 168.023409,98.8496121 C166.266903,100.01237 164.250631,100.593749 161.974595,100.593749 C159.797517,100.593749 157.805985,100.01237 156,98.8496121 C156.272135,98.8743518 156.581379,98.8867214 156.927732,98.8867214 C158.733718,98.8867214 160.354156,98.3300821 161.789049,97.2168035 C160.923166,97.2168035 160.162425,96.9632236 159.506828,96.4560631 C158.85123,95.9489027 158.399734,95.3118603 158.152339,94.5449349 C158.399734,94.5696746 158.634759,94.5820442 158.857415,94.5820442 C159.203768,94.5820442 159.550122,94.5449349 159.896475,94.4707163 C159.005852,94.2728003 158.263666,93.8151187 157.669918,93.0976727 C157.076169,92.3802267 156.779295,91.5638224 156.779295,90.6484598 L156.779295,90.5742412 C157.323565,90.8958552 157.904943,91.0690315 158.523431,91.0937712 C158.003901,90.7226784 157.58333,90.2526272 157.261716,89.6836183 C156.940102,89.1146095 156.779295,88.4899361 156.779295,87.8095994 C156.779295,87.1292626 156.964841,86.4798501 157.335934,85.8613618 C158.300776,87.0735987 159.482088,88.0384402 160.879871,88.7558862 C162.277654,89.4733322 163.76821,89.8691648 165.35154,89.9433834 C165.302061,89.6465091 165.277322,89.3496348 165.277322,89.0527605 C165.277322,88.3600536 165.450498,87.7106411 165.796852,87.1045229 C166.143205,86.4984048 166.613256,86.0221686 167.207005,85.6758154 C167.800753,85.3294622 168.443981,85.1562854 169.136687,85.1562854 C169.705696,85.1562854 170.231411,85.2676132 170.713832,85.490269 C171.196253,85.7129247 171.62301,86.009799 171.994102,86.3808918 C172.884725,86.207715 173.713499,85.8984711 174.480425,85.4531597 C174.18355,86.3685223 173.614542,87.0859683 172.773398,87.6054983 C173.515583,87.50654 174.257769,87.2962544 174.999955,86.9746404 C174.455685,87.766305 173.800088,88.4466423 173.033163,89.0156512 Z" id="twitter"></path>
        </g>
    </g>
</svg>